<mxfile host="www.draw.io" modified="2020-01-06T05:57:48.335Z" agent="Mozilla/5.0 (Windows NT 6.1; Win64; x64) AppleWebKit/537.36 (KHTML, like Gecko) Chrome/79.0.3945.88 Safari/537.36" etag="dc79IkXTyTopzuKGu_4w" version="12.4.8" type="github" pages="2">
  <diagram id="b3h_3Atux4s68zcuTGjY" name="Page-1">
    <mxGraphModel dx="1422" dy="762" grid="1" gridSize="10" guides="1" tooltips="1" connect="1" arrows="1" fold="1" page="1" pageScale="1" pageWidth="827" pageHeight="1169" math="0" shadow="0">
      <root>
        <mxCell id="0"/>
        <mxCell id="1" parent="0"/>
        <mxCell id="v2VOmOzlyyHsazO3PfmF-1" value="" style="endArrow=none;dashed=1;html=1;" edge="1" parent="1">
          <mxGeometry width="50" height="50" relative="1" as="geometry">
            <mxPoint x="70" y="310" as="sourcePoint"/>
            <mxPoint x="730" y="310" as="targetPoint"/>
          </mxGeometry>
        </mxCell>
        <mxCell id="v2VOmOzlyyHsazO3PfmF-2" value="接入层" style="text;html=1;strokeColor=none;fillColor=none;align=center;verticalAlign=middle;whiteSpace=wrap;rounded=0;" vertex="1" parent="1">
          <mxGeometry x="80" y="50" width="40" height="20" as="geometry"/>
        </mxCell>
        <mxCell id="v2VOmOzlyyHsazO3PfmF-3" value="" style="endArrow=none;dashed=1;html=1;" edge="1" parent="1">
          <mxGeometry width="50" height="50" relative="1" as="geometry">
            <mxPoint x="72" y="420" as="sourcePoint"/>
            <mxPoint x="732" y="420" as="targetPoint"/>
          </mxGeometry>
        </mxCell>
        <mxCell id="v2VOmOzlyyHsazO3PfmF-4" value="控件层" style="text;html=1;strokeColor=none;fillColor=none;align=center;verticalAlign=middle;whiteSpace=wrap;rounded=0;" vertex="1" parent="1">
          <mxGeometry x="85" y="390" width="40" height="20" as="geometry"/>
        </mxCell>
        <mxCell id="v2VOmOzlyyHsazO3PfmF-5" value="" style="endArrow=none;dashed=1;html=1;" edge="1" parent="1">
          <mxGeometry width="50" height="50" relative="1" as="geometry">
            <mxPoint x="70" y="550" as="sourcePoint"/>
            <mxPoint x="730" y="550" as="targetPoint"/>
          </mxGeometry>
        </mxCell>
        <mxCell id="v2VOmOzlyyHsazO3PfmF-6" value="公共模块层" style="text;html=1;strokeColor=none;fillColor=none;align=center;verticalAlign=middle;whiteSpace=wrap;rounded=0;" vertex="1" parent="1">
          <mxGeometry x="70" y="520" width="70" height="20" as="geometry"/>
        </mxCell>
        <mxCell id="v2VOmOzlyyHsazO3PfmF-7" value="" style="endArrow=none;dashed=1;html=1;" edge="1" parent="1">
          <mxGeometry width="50" height="50" relative="1" as="geometry">
            <mxPoint x="70" y="690" as="sourcePoint"/>
            <mxPoint x="730" y="690" as="targetPoint"/>
          </mxGeometry>
        </mxCell>
        <mxCell id="v2VOmOzlyyHsazO3PfmF-8" value="基础服务层" style="text;html=1;strokeColor=none;fillColor=none;align=center;verticalAlign=middle;whiteSpace=wrap;rounded=0;" vertex="1" parent="1">
          <mxGeometry x="70" y="660" width="80" height="20" as="geometry"/>
        </mxCell>
        <mxCell id="v2VOmOzlyyHsazO3PfmF-10" value="" style="endArrow=none;dashed=1;html=1;" edge="1" parent="1">
          <mxGeometry width="50" height="50" relative="1" as="geometry">
            <mxPoint x="70" y="80" as="sourcePoint"/>
            <mxPoint x="730" y="80" as="targetPoint"/>
          </mxGeometry>
        </mxCell>
        <mxCell id="v2VOmOzlyyHsazO3PfmF-12" value="页面层" style="text;html=1;strokeColor=none;fillColor=none;align=center;verticalAlign=middle;whiteSpace=wrap;rounded=0;" vertex="1" parent="1">
          <mxGeometry x="85" y="280" width="40" height="20" as="geometry"/>
        </mxCell>
        <mxCell id="v2VOmOzlyyHsazO3PfmF-14" value="" style="endArrow=none;dashed=1;html=1;" edge="1" parent="1">
          <mxGeometry width="50" height="50" relative="1" as="geometry">
            <mxPoint x="60" y="160" as="sourcePoint"/>
            <mxPoint x="720" y="160" as="targetPoint"/>
          </mxGeometry>
        </mxCell>
        <mxCell id="v2VOmOzlyyHsazO3PfmF-15" value="外部服务嵌入层" style="text;html=1;strokeColor=none;fillColor=none;align=center;verticalAlign=middle;whiteSpace=wrap;rounded=0;" vertex="1" parent="1">
          <mxGeometry x="70" y="130" width="90" height="20" as="geometry"/>
        </mxCell>
        <mxCell id="v2VOmOzlyyHsazO3PfmF-16" value="" style="endArrow=none;dashed=1;html=1;" edge="1" parent="1">
          <mxGeometry width="50" height="50" relative="1" as="geometry">
            <mxPoint x="60" y="240" as="sourcePoint"/>
            <mxPoint x="720" y="240" as="targetPoint"/>
          </mxGeometry>
        </mxCell>
        <mxCell id="v2VOmOzlyyHsazO3PfmF-17" value="定制页面层" style="text;html=1;strokeColor=none;fillColor=none;align=center;verticalAlign=middle;whiteSpace=wrap;rounded=0;" vertex="1" parent="1">
          <mxGeometry x="75" y="210" width="80" height="20" as="geometry"/>
        </mxCell>
        <mxCell id="v2VOmOzlyyHsazO3PfmF-18" value="PC页面壳" style="rounded=0;whiteSpace=wrap;html=1;" vertex="1" parent="1">
          <mxGeometry x="190" y="10" width="120" height="60" as="geometry"/>
        </mxCell>
        <mxCell id="v2VOmOzlyyHsazO3PfmF-19" value="手机页面壳" style="rounded=0;whiteSpace=wrap;html=1;" vertex="1" parent="1">
          <mxGeometry x="340" y="10" width="120" height="60" as="geometry"/>
        </mxCell>
        <mxCell id="v2VOmOzlyyHsazO3PfmF-20" value="PC流程壳" style="rounded=0;whiteSpace=wrap;html=1;" vertex="1" parent="1">
          <mxGeometry x="190" y="90" width="120" height="60" as="geometry"/>
        </mxCell>
        <mxCell id="v2VOmOzlyyHsazO3PfmF-21" value="手机流程壳" style="rounded=0;whiteSpace=wrap;html=1;" vertex="1" parent="1">
          <mxGeometry x="340" y="90" width="120" height="60" as="geometry"/>
        </mxCell>
        <mxCell id="v2VOmOzlyyHsazO3PfmF-22" value="交接班定制页面" style="rounded=0;whiteSpace=wrap;html=1;" vertex="1" parent="1">
          <mxGeometry x="190" y="170" width="120" height="60" as="geometry"/>
        </mxCell>
        <mxCell id="v2VOmOzlyyHsazO3PfmF-23" value="权限配置定制页面" style="rounded=0;whiteSpace=wrap;html=1;" vertex="1" parent="1">
          <mxGeometry x="340" y="170" width="120" height="60" as="geometry"/>
        </mxCell>
        <mxCell id="v2VOmOzlyyHsazO3PfmF-25" value="PC流程定制页面" style="rounded=0;whiteSpace=wrap;html=1;" vertex="1" parent="1">
          <mxGeometry x="490" y="170" width="120" height="60" as="geometry"/>
        </mxCell>
        <mxCell id="v2VOmOzlyyHsazO3PfmF-27" value="手机流程定制页面" style="rounded=0;whiteSpace=wrap;html=1;" vertex="1" parent="1">
          <mxGeometry x="640" y="170" width="120" height="60" as="geometry"/>
        </mxCell>
        <mxCell id="v2VOmOzlyyHsazO3PfmF-29" value="视频快速通道定制页面" style="rounded=0;whiteSpace=wrap;html=1;" vertex="1" parent="1">
          <mxGeometry x="790" y="170" width="120" height="60" as="geometry"/>
        </mxCell>
        <mxCell id="v2VOmOzlyyHsazO3PfmF-31" value="统计图表定制页面" style="rounded=0;whiteSpace=wrap;html=1;" vertex="1" parent="1">
          <mxGeometry x="940" y="170" width="120" height="60" as="geometry"/>
        </mxCell>
        <mxCell id="v2VOmOzlyyHsazO3PfmF-33" value="建筑物分组定制页面" style="rounded=0;whiteSpace=wrap;html=1;" vertex="1" parent="1">
          <mxGeometry x="1090" y="170" width="120" height="60" as="geometry"/>
        </mxCell>
        <mxCell id="v2VOmOzlyyHsazO3PfmF-35" value="人员检测上墙定制页面" style="rounded=0;whiteSpace=wrap;html=1;" vertex="1" parent="1">
          <mxGeometry x="1240" y="170" width="120" height="60" as="geometry"/>
        </mxCell>
      </root>
    </mxGraphModel>
  </diagram>
  <diagram id="SpcUCxMmWh5xXOgQC-5L" name="Page-2">
    <mxGraphModel dx="1422" dy="762" grid="1" gridSize="10" guides="1" tooltips="1" connect="1" arrows="1" fold="1" page="1" pageScale="1" pageWidth="827" pageHeight="1169" math="0" shadow="0">
      <root>
        <mxCell id="anVol1tQRb9R3mzSALBD-0"/>
        <mxCell id="anVol1tQRb9R3mzSALBD-1" parent="anVol1tQRb9R3mzSALBD-0"/>
      </root>
    </mxGraphModel>
  </diagram>
</mxfile>
